<?xml version="1.0" encoding="UTF-8"?>
<svg version="1.1" xmlns="http://www.w3.org/2000/svg" width="323" height="314">
<path d="M0 0 C0.84826233 -0.00445784 1.69652466 -0.00891569 2.57049191 -0.01350862 C3.49751978 -0.01332426 4.42454766 -0.01313989 5.37966728 -0.01294994 C6.36833255 -0.01662663 7.35699781 -0.02030332 8.37562263 -0.02409142 C11.69801082 -0.0351297 15.02036774 -0.03897237 18.34277153 -0.04278088 C20.7211956 -0.04904543 23.09961868 -0.05569222 25.4780407 -0.0626936 C32.62219689 -0.08192061 39.76635365 -0.09252191 46.91052848 -0.10142139 C50.27737731 -0.10580765 53.64422457 -0.1111736 57.01107216 -0.11641026 C68.20768533 -0.13342088 79.40429753 -0.14791404 90.60092163 -0.155159 C93.50526875 -0.1570688 96.40961585 -0.15898914 99.31396294 -0.16094494 C100.39671436 -0.16167055 100.39671436 -0.16167055 101.50133954 -0.16241082 C113.18909175 -0.17070741 124.87674148 -0.19603876 136.56444897 -0.22852562 C148.57213771 -0.26162894 160.57977443 -0.27961072 172.58750904 -0.28280324 C179.32609467 -0.28496535 186.0645309 -0.29367004 192.80307198 -0.31926441 C199.14454919 -0.34254891 205.48575781 -0.34677659 211.82726669 -0.33650303 C214.15161152 -0.33600765 216.47596958 -0.34232849 218.8002739 -0.35605907 C221.98046046 -0.37379076 225.15968445 -0.36666482 228.33987236 -0.35352612 C229.2535159 -0.36449536 230.16715945 -0.37546461 231.10848916 -0.38676625 C239.82232774 -0.30021486 247.7478544 2.35716086 254.2055645 8.35687733 C260.0698009 15.14626044 261.89201375 21.7899156 261.88116264 30.56453419 C261.88561933 31.69120468 261.88561933 31.69120468 261.89016604 32.84063619 C261.89884199 35.3591634 261.90036038 37.877643 261.90185356 40.39618397 C261.90648265 42.20156423 261.91150743 44.00694352 261.91689873 45.81232166 C261.93001911 50.7196913 261.9364674 55.62704726 261.94090939 60.5344317 C261.94384171 63.60264885 261.9479469 66.67086229 261.95241356 69.73907757 C261.96608977 79.34512854 261.97575488 88.95117098 261.97961545 98.55723101 C261.9840916 109.63348398 262.00161843 120.70961327 262.03061604 131.78582865 C262.05226633 140.35416574 262.06232158 148.92246813 262.06365657 157.49083227 C262.06470253 162.60467181 262.0705654 167.71839511 262.08847618 172.83220577 C262.10501395 177.64784638 262.10708475 182.46328409 262.09833717 187.27894306 C262.09756975 189.0400818 262.10187036 190.8012317 262.11179543 192.56234264 C262.23627941 216.04057596 262.23627941 216.04057596 254.47509575 225.41547108 C247.44449305 232.38273502 239.14788945 234.42472859 229.41869926 234.45306873 C228.21747681 234.46813717 228.21747681 234.46813717 226.99198723 234.48351002 C224.36787388 234.51418678 221.74386181 234.53133365 219.119627 234.54828358 C217.29116262 234.56700773 215.46270677 234.58658206 213.63426018 234.60696888 C208.83888604 234.65816437 204.04348393 234.69785725 199.24798393 234.73511219 C194.34770674 234.77523094 189.44754466 234.82628729 184.54736137 234.87640858 C174.94522885 234.97301878 165.34303113 235.05747103 155.74072075 235.13422108 C155.95728325 236.76230701 155.95728325 236.76230701 156.17822075 238.42328358 C156.36592031 239.86857017 156.55340913 241.31388415 156.74072075 242.75922108 C156.88380669 243.82849842 156.88380669 243.82849842 157.02978325 244.91937733 C157.55678176 249.02243716 157.84539059 252.9866785 157.74072075 257.13422108 C158.67867485 257.11327381 159.61662895 257.09232655 160.58300591 257.07074451 C164.083107 257.00232735 167.58249141 256.95230521 171.08300591 256.91449451 C172.59418811 256.89445317 174.10529347 256.86721203 175.61620903 256.83246326 C177.79592718 256.78360999 179.97461506 256.76117884 182.15478325 256.74359608 C183.46398735 256.72264881 184.77319145 256.70170155 186.12206841 256.68011951 C190.33653639 257.20898947 192.46869 258.47882091 195.74072075 261.13422108 C197.31007669 264.27293295 197.09273178 266.6727793 196.74072075 270.13422108 C193.99178969 273.83750896 192.48354576 275.00962618 187.88952446 275.78018665 C186.35787319 275.81532599 184.82544783 275.82325145 183.29345512 275.80951405 C182.45032328 275.82156722 181.60719143 275.8336204 180.73851013 275.84603882 C177.93682705 275.87992132 175.13634031 275.87834287 172.33447075 275.87640858 C170.35393363 275.89266519 168.3734124 275.91097032 166.39291191 275.93120289 C161.10049316 275.97849323 155.80843626 275.99414472 150.51582909 276.00202274 C146.16121902 276.0115937 141.80676818 276.03753606 137.45222855 276.06327248 C124.80462546 276.13673793 112.15744194 276.15374786 99.50965691 276.13767719 C96.9157387 276.13443953 94.32182301 276.13256863 91.72790337 276.13098621 C83.79186116 276.12376102 75.85716664 276.08763758 67.92162895 275.98804188 C65.73044605 275.96065411 63.53918985 275.93857773 61.34789848 275.92200184 C58.39208821 275.89517366 55.43813105 275.84209508 52.48290825 275.77875233 C51.65100975 275.77431614 50.81911125 275.76987995 49.96200371 275.76530933 C44.95736529 275.61420897 42.24218383 274.75483057 38.74072075 271.13422108 C37.2964122 268.24560398 37.36383569 266.33774406 37.74072075 263.13422108 C39.91335575 260.56136384 41.72065913 258.64425189 44.74072075 257.13422108 C47.14632348 256.97814085 49.52774847 256.87617649 51.93603325 256.81781483 C52.99719856 256.78664318 52.99719856 256.78664318 54.07980156 256.7548418 C56.341675 256.6894103 58.60366537 256.63049134 60.86572075 256.57172108 C62.39828497 256.52852975 63.93083732 256.48491526 65.463377 256.4408617 C69.22237148 256.33373552 72.98148367 256.23245018 76.74072075 256.13422108 C77.0565056 254.3222905 77.36814638 252.50963762 77.67822075 250.69672108 C77.85224419 249.68738514 78.02626762 248.6780492 78.2055645 247.63812733 C78.84050704 243.48087581 79.3042469 239.31626321 79.74072075 235.13422108 C78.74815269 235.12835484 77.75558464 235.12248859 76.73293877 235.11644459 C67.34699773 235.05905815 57.96128484 234.9862142 48.57557678 234.89850616 C43.7510847 234.8539115 38.92667495 234.8146317 34.10204887 234.78778553 C29.4399388 234.76164332 24.7781474 234.72116475 20.11623573 234.67103481 C18.34382805 234.65443959 16.57136534 234.64287983 14.79889107 234.63660717 C-9.7416466 234.54102867 -9.7416466 234.54102867 -18.849123 225.56781483 C-25.89299854 217.86949609 -27.40916152 209.66590251 -27.40645027 199.49463367 C-27.41012696 198.74518915 -27.41380365 197.99574462 -27.41759175 197.22358966 C-27.42856815 194.72276441 -27.43246207 192.2219808 -27.4362812 189.72113514 C-27.44255033 187.92368916 -27.44919752 186.12624446 -27.45619392 184.32880116 C-27.47717996 178.43582522 -27.4875899 172.54284917 -27.4975605 166.64984608 C-27.50160983 164.61751511 -27.5057268 162.58518428 -27.50991058 160.55285358 C-27.52894875 151.00501291 -27.54318374 141.45717992 -27.55152255 131.90932393 C-27.5612959 120.90209474 -27.58762383 109.89506658 -27.62802345 98.88790822 C-27.65821146 90.36965303 -27.6729939 81.8514554 -27.67630357 73.33314776 C-27.67865056 68.25006757 -27.6875659 63.16720251 -27.71276474 58.08417988 C-27.73609809 53.30048306 -27.74025755 48.51714225 -27.73000336 43.73340321 C-27.7295092 41.98312411 -27.73579402 40.23282716 -27.7495594 38.48260212 C-27.83550721 26.90171912 -27.32451372 16.58993146 -19.036623 7.66937733 C-13.51458311 2.89979123 -7.30922961 0.01787803 0 0 Z M-7.11173153 24.40687561 C-8.50346162 27.71456266 -8.62853906 30.18349427 -8.6200428 33.77174854 C-8.62261086 34.42373722 -8.62517891 35.0757259 -8.62782478 35.74747181 C-8.63277607 37.93108471 -8.61624486 40.11400173 -8.59985542 42.29755116 C-8.59893613 43.89011679 -8.59933739 45.48268364 -8.60095119 47.07524872 C-8.60162798 51.33689022 -8.58425108 55.5982786 -8.56311989 59.85986042 C-8.54602452 63.85997273 -8.54522997 67.86002374 -8.54309273 71.86017323 C-8.52735594 83.55572265 -8.48547242 95.25122507 -8.44677925 106.94672108 C-8.38490425 133.07859608 -8.32302925 159.21047108 -8.25927925 186.13422108 C74.57072075 186.13422108 157.40072075 186.13422108 242.74072075 186.13422108 C242.82322075 159.83734608 242.90572075 133.54047108 242.99072075 106.44672108 C243.02713676 98.1391161 243.06355278 89.83151112 243.10107231 81.27216053 C243.11444889 73.83438156 243.11444889 73.83438156 243.12249565 66.39659595 C243.12622688 63.08004045 243.14123463 59.76374028 243.16302299 56.44725513 C243.19044187 52.21776013 243.19868883 47.98863686 243.19300985 43.75906122 C243.19419749 42.20626954 243.2021403 40.65346497 243.21758127 39.10074961 C243.2374719 37.00326657 243.23268602 34.90722847 243.22173882 32.80971241 C243.22726957 31.04678333 243.22726957 31.04678333 243.23291206 29.24823952 C242.63051065 25.43693878 241.45664161 23.83527175 238.74072075 21.13422108 C235.9297359 19.45703915 233.86991441 18.8837464 230.61082458 18.87974548 C229.79144602 18.87391329 228.97206745 18.8680811 228.12785923 18.86207217 C227.23312142 18.86585149 226.3383836 18.86963082 225.41653252 18.87352467 C224.46179696 18.86969912 223.5070614 18.86587357 222.52339447 18.8619321 C219.31599581 18.85159213 216.10877584 18.85559618 212.90136528 18.85956287 C210.60511929 18.85521694 208.30887474 18.85003419 206.01263237 18.8440752 C199.76884756 18.83066079 193.52512319 18.83010929 187.28132677 18.8326385 C182.07243862 18.83370663 176.86356279 18.82882888 171.65467727 18.82403308 C158.66443017 18.81229401 145.67422171 18.81316779 132.68397294 18.81958989 C121.40415748 18.82475824 110.12442839 18.81350637 98.84463002 18.79449167 C87.26183787 18.77511596 75.67909029 18.76714833 64.09628189 18.77061492 C57.59371927 18.77242997 51.09123574 18.76976955 44.58868599 18.75590038 C38.47377574 18.74334664 32.35903861 18.745243 26.24413109 18.75831127 C23.99874247 18.760682 21.75334176 18.75792468 19.507967 18.74968815 C16.44473459 18.73926112 13.3820874 18.74728917 10.31887627 18.75999928 C9.42859989 18.75262499 8.53832352 18.74525071 7.62106907 18.73765296 C1.55980181 18.79062543 -3.05971836 19.43572131 -7.11173153 24.40687561 Z M259.74072075 206.13422108 C260.74072075 208.13422108 260.74072075 208.13422108 260.74072075 208.13422108 Z M138.74072075 233.13422108 C139.74072075 235.13422108 139.74072075 235.13422108 139.74072075 235.13422108 Z M96.74072075 236.13422108 C96.08072075 243.06422108 95.42072075 249.99422108 94.74072075 257.13422108 C109.92072075 257.13422108 125.10072075 257.13422108 140.74072075 257.13422108 C140.92695741 246.4926486 140.92695741 246.4926486 137.74072075 234.13422108 C134.87977858 234.02072947 132.04388619 233.97003616 129.182127 233.96625233 C128.32263954 233.96292393 127.46315208 233.95959553 126.57761955 233.95616627 C124.75593414 233.95109337 122.93423939 233.94875805 121.11254692 233.94891834 C118.31852785 233.94673305 115.52490418 233.92858463 112.73095512 233.9096117 C110.96468044 233.90667767 109.19840387 233.90469294 107.432127 233.90375233 C106.59250923 233.89656681 105.75289146 233.88938129 104.88783073 233.88197803 C100.33829315 233.69509976 100.33829315 233.69509976 96.74072075 236.13422108 Z M80.74072075 235.13422108 C81.74072075 237.13422108 81.74072075 237.13422108 81.74072075 237.13422108 Z " fill="#151014" transform="translate(43.25927925109863,19.865778923034668)"/>
<path d="M0 0 C4.0700163 1.78442879 6.43490759 4.17970457 8.9375 7.8125 C10.53796283 12.6138885 11.07576517 16.52529742 9.05078125 21.18359375 C6.68802166 25.24575141 4.48192841 28.22807481 0 30 C-1.27230469 30.06445312 -2.54460937 30.12890625 -3.85546875 30.1953125 C-7.407686 30.61371979 -7.93113926 30.93364147 -10.6875 33.58984375 C-11.48168071 34.68923508 -12.25177242 35.80633256 -13 36.9375 C-13.85450866 38.13610172 -14.70998709 39.33401262 -15.56640625 40.53125 C-15.97906738 41.12421875 -16.39172852 41.7171875 -16.81689453 42.328125 C-18.43095897 44.60899856 -20.17261444 46.77199625 -21.9375 48.9375 C-26.14763232 54.17241098 -30.31649269 59.4377355 -34.43359375 64.74609375 C-35.92061406 66.65626322 -37.42299659 68.47495778 -39.03515625 70.28515625 C-43.15070538 75.02338894 -43.30705513 78.19214597 -42.97265625 84.3828125 C-43.0179078 88.71403239 -44.3047697 90.613685 -47 94 C-51.06464584 97.53813731 -55.36649339 98.77723793 -60.72265625 98.51171875 C-65.02287253 97.54546089 -68.02356504 95.17206918 -71 92 C-73.1851202 88.24432465 -74.20885907 86.21783269 -73.46875 81.90234375 C-74.33774235 75.51908379 -78.95012274 72.28148563 -83.5 68 C-84.386875 67.13632813 -85.27375 66.27265625 -86.1875 65.3828125 C-90.17314281 61.52611695 -94.22111896 57.7728714 -98.42578125 54.15625 C-101.17352734 51.79212007 -103.42910699 49.34349725 -105.6875 46.5 C-108.19758523 43.97509143 -109.55280599 43.08682828 -113.078125 42.40234375 C-119.40694452 42.46857558 -123.31493832 43.60409458 -127.8125 48.125 C-129.2164551 49.74298818 -130.61269167 51.36771592 -132 53 C-133.26591625 54.1742201 -134.5570974 55.32194204 -135.875 56.4375 C-136.83019531 57.27087891 -136.83019531 57.27087891 -137.8046875 58.12109375 C-139.50014164 59.57218528 -141.21821801 60.99687071 -142.9453125 62.41015625 C-143.96404295 63.2728459 -144.98227485 64.13612462 -146 65 C-146.94875 65.78375 -147.8975 66.5675 -148.875 67.375 C-151.63241671 70.78122064 -151.2618818 72.71774754 -151 77 C-152.27144526 81.39022568 -154.34059863 84.4155306 -157.75 87.4375 C-162.83205986 89.88079801 -166.76934299 90.74355234 -172.1875 88.9375 C-176.03557238 86.28660569 -178.88393853 83.23212294 -181 79 C-181.56350726 74.38108804 -181.4422879 70.90158688 -179.375 66.6875 C-176.66108087 63.61648625 -174.69856168 61.81565755 -171 60 C-169.27712456 59.93077424 -167.55239063 59.90218985 -165.828125 59.90234375 C-158.86042941 59.35033879 -155.78576292 55.92695699 -151.3125 50.875 C-149.91525543 49.37007549 -148.51553022 47.86745015 -147.11328125 46.3671875 C-146.43861816 45.63467773 -145.76395508 44.90216797 -145.06884766 44.14746094 C-142.40988384 41.38746026 -139.57416819 38.89183552 -136.65307617 36.41455078 C-133.72437886 34.07533373 -133.72437886 34.07533373 -132.7265625 30.609375 C-132.69304687 29.66578125 -132.65953125 28.7221875 -132.625 27.75 C-132.12417225 21.25621643 -130.21441494 18.00351828 -125.375 13.625 C-120.80155451 11.42297069 -116.99046524 11.19534844 -112 12 C-107.62682773 14.18658613 -104.56098622 16.82654097 -102 21 C-101.24087892 24.31078859 -101 27.60036014 -101 31 C-99.61880187 32.6773306 -99.61880187 32.6773306 -97.78125 34.44921875 C-97.09546875 35.13306641 -96.4096875 35.81691406 -95.703125 36.52148438 C-94.97609375 37.23626953 -94.2490625 37.95105469 -93.5 38.6875 C-92.80390625 39.38294922 -92.1078125 40.07839844 -91.390625 40.79492188 C-87.9771648 44.17993657 -84.51882206 47.45468019 -80.8671875 50.58203125 C-78.30749061 52.78481708 -75.97358357 55.04167934 -73.7265625 57.5625 C-68.28213891 63.82354501 -68.28213891 63.82354501 -61.328125 68.10546875 C-58.14271259 68.21198732 -56.70726057 67.70984878 -54 66 C-50.38898493 62.29695006 -47.45647147 58.27668924 -44.48583984 54.05419922 C-41.97373519 50.58117119 -39.22814759 47.30397801 -36.5 44 C-35.41299002 42.66232913 -34.32704912 41.3237888 -33.2421875 39.984375 C-31.07577947 37.31460723 -28.89070313 34.66158658 -26.6953125 32.015625 C-25.67134432 30.76084955 -24.64788375 29.50565963 -23.625 28.25 C-23.14224609 27.67765625 -22.65949219 27.1053125 -22.16210938 26.515625 C-19.62338605 23.53746266 -19.62338605 23.53746266 -19.19140625 19.81640625 C-19.45824219 19.21699219 -19.72507813 18.61757812 -20 18 C-20.54976038 12.17254001 -19.57629138 8.51506787 -16 4 C-11.16989373 -0.48509868 -6.32531617 -1.15096734 0 0 Z M-153 74 C-152 76 -152 76 -152 76 Z M-73 80 C-72 82 -72 82 -72 82 Z " fill="#241B23" transform="translate(245,93)"/>
<path d="M0 0 C1.86088237 2.29330674 2.26834362 3.91553401 2.49609375 6.84375 C0.99609375 9.71875 0.99609375 9.71875 -1.50390625 11.84375 C-7.51777133 12.06648574 -10.13907413 9.6629781 -14.50390625 5.84375 C-22.02126561 1.94585996 -28.74804869 1.14235782 -36.90234375 2.97265625 C-42.31079048 4.78359262 -47.46544269 7.80528644 -51.50390625 11.84375 C-55.00390625 11.65625 -55.00390625 11.65625 -58.50390625 10.84375 C-60.50390625 7.84375 -60.50390625 7.84375 -61.06640625 5.59375 C-60.12486466 0.99065777 -57.14505409 -1.36388324 -53.50390625 -4.15625 C-35.26726707 -15.50234085 -16.27746657 -13.88661132 0 0 Z " fill="#362833" transform="translate(268.50390625,68.15625)"/>
<path d="M0 0 C3.20126301 2.26943998 4.05583523 3.60196934 4.7265625 7.4921875 C4.1015625 10.8671875 4.1015625 10.8671875 2.4765625 12.8671875 C-0.75676705 14.22858942 -2.55737095 13.84166524 -5.8984375 12.8671875 C-6.5171875 12.3721875 -7.1359375 11.8771875 -7.7734375 11.3671875 C-10.90452465 9.15700833 -14.14689905 8.72984794 -17.8984375 8.8671875 C-21.27650061 10.20566534 -23.88001485 11.85490574 -26.8984375 13.8671875 C-29.8984375 13.8046875 -29.8984375 13.8046875 -32.8984375 12.8671875 C-34.8984375 10.6171875 -34.8984375 10.6171875 -35.8984375 7.8671875 C-35.38337149 3.84967265 -33.18549521 2.0813531 -30.1484375 -0.3203125 C-19.79646026 -7.54996986 -10.39569427 -6.20319205 0 0 Z " fill="#3B2C37" transform="translate(254.8984375,78.1328125)"/>
<path d="M0 0 C0.33 0 0.66 0 1 0 C1.5021696 3.62470293 2.00136777 7.2498089 2.5 10.875 C2.64308594 11.90753906 2.78617188 12.94007813 2.93359375 14.00390625 C3.13662109 15.48310547 3.13662109 15.48310547 3.34375 16.9921875 C3.46943359 17.90339355 3.59511719 18.81459961 3.72460938 19.75341797 C4 22 4 22 4 24 C-12.5 24 -29 24 -46 24 C-44 5 -44 5 -42 1 C-42.14111883 3.75031587 -42.28771165 6.50015418 -42.4375 9.25 C-42.49647461 10.41595703 -42.49647461 10.41595703 -42.55664062 11.60546875 C-42.59853516 12.35957031 -42.64042969 13.11367188 -42.68359375 13.890625 C-42.72025146 14.58188477 -42.75690918 15.27314453 -42.79467773 15.98535156 C-43 18 -43 18 -44 22 C-28.82 22 -13.64 22 2 22 C1.34 17.38 0.68 12.76 0 8 C-0.0683536 5.33420952 -0.10658144 2.66453589 0 0 Z " fill="#C694BD" transform="translate(182,255)"/>
<path d="M0 0 C0.33 0 0.66 0 1 0 C1.05543528 1.93715495 1.09341948 3.87480936 1.125 5.8125 C1.14820313 6.89144531 1.17140625 7.97039062 1.1953125 9.08203125 C0.94506437 14.1020088 -0.10088401 19.05486207 -1 24 C-11.89 24 -22.78 24 -34 24 C-34.33 23.34 -34.66 22.68 -35 22 C-24.44 21.67 -13.88 21.34 -3 21 C-1.82146223 13.92877337 -0.70956839 7.09568389 0 0 Z " fill="#C896BF" transform="translate(123,255)"/>
<path d="M0 0 C14.19 0 28.38 0 43 0 C42.67 0.66 42.34 1.32 42 2 C28 2 14 2 0 2 C0 1.34 0 0.68 0 0 Z " fill="#F0B4E8" transform="translate(139,253)"/>
</svg>
