<?xml version="1.0" encoding="UTF-8"?>
<svg version="1.1" xmlns="http://www.w3.org/2000/svg" width="1024" height="1024">
<path d="M0 0 C337.92 0 675.84 0 1024 0 C1024 337.92 1024 675.84 1024 1024 C686.08 1024 348.16 1024 0 1024 C0 686.08 0 348.16 0 0 Z M90 379 C85.73090598 385.5277426 84.87625409 391.58459542 84.86628723 399.32278442 C84.8628889 400.41398458 84.8628889 400.41398458 84.85942191 401.52722919 C84.85310259 403.95973805 84.85390996 406.39219089 84.85473633 408.82470703 C84.85174345 410.57112195 84.84834063 412.3175362 84.84455872 414.06394958 C84.83572526 418.80597993 84.83338081 423.54799223 84.83274293 428.29003 C84.83203179 431.25556914 84.8298962 434.2211037 84.82724571 437.18664169 C84.81799283 447.54109742 84.81391055 457.89554028 84.81469727 468.25 C84.8152973 477.88666053 84.80475995 487.52326494 84.7889536 497.15991127 C84.77585265 505.44376994 84.77051448 513.72761032 84.77115268 522.01147926 C84.77140701 526.95424806 84.76859172 531.89696705 84.75797462 536.83972549 C84.7482512 541.49365616 84.74824344 546.14748983 84.75549126 550.80142403 C84.756532 552.5028949 84.75420476 554.20437194 84.7481308 555.90583229 C84.3022625 573.83527978 84.3022625 573.83527978 91 590 C99.39676991 598.0491912 108.72743931 600.16917286 120.11669922 600.11352539 C120.90761459 600.11367142 121.69852997 600.11381744 122.51341248 600.1139679 C125.11053269 600.11327489 127.70757991 600.10551129 130.3046875 600.09765625 C132.1121517 600.0957899 133.91961641 600.09436702 135.7270813 600.09336853 C140.47157196 600.08956049 145.21603174 600.07974488 149.96051025 600.06866455 C154.80700259 600.05841355 159.65349994 600.05386302 164.5 600.04882812 C174.00001353 600.03812102 183.50000419 600.02106525 193 600 C192.90912109 600.68102783 192.81824219 601.36205566 192.72460938 602.0637207 C192.31439411 605.14638327 191.90716294 608.22943286 191.5 611.3125 C191.35691406 612.38435547 191.21382813 613.45621094 191.06640625 614.56054688 C190.93105469 615.58857422 190.79570312 616.61660156 190.65625 617.67578125 C190.46772461 619.0975769 190.46772461 619.0975769 190.27539062 620.5480957 C189.94419239 623.08565552 189.94419239 623.08565552 190 626 C188.44889526 625.96072388 188.44889526 625.96072388 186.86645508 625.9206543 C183.01820641 625.82993577 179.1700516 625.77267341 175.32104492 625.7253418 C173.65747161 625.70024653 171.99400804 625.66616204 170.33081055 625.62280273 C167.93510847 625.5619254 165.54086749 625.53374231 163.14453125 625.51171875 C162.4047554 625.48591232 161.66497955 625.4601059 160.90278625 625.43351746 C156.94576562 625.43138368 155.171086 625.86883268 151.99487305 628.30395508 C149.65022159 630.92685528 149.65022159 630.92685528 149.9375 634.625 C151.12387259 638.39347765 151.65913332 639.1003117 155 641 C157.84451377 641.45568839 157.84451377 641.45568839 161.02806091 641.39440918 C162.26321442 641.40575897 163.49836792 641.41710876 164.77095032 641.42880249 C166.13693302 641.42615924 167.50291513 641.42318803 168.86889648 641.41992188 C170.30963805 641.42726248 171.75037372 641.43584868 173.19110107 641.44558716 C177.10228426 641.46781255 181.01325684 641.47073337 184.9244945 641.46883965 C188.18996429 641.46872 191.45538936 641.47728181 194.72084671 641.48561716 C202.42468658 641.50485475 210.12841808 641.5077337 217.83227539 641.50097656 C225.77928627 641.49433443 233.72583317 641.51720592 241.67274994 641.55429029 C248.49665868 641.58497847 255.32041808 641.59634833 262.14439446 641.59245348 C266.21967515 641.59038512 270.29459476 641.59587817 274.3698101 641.62034607 C278.20233155 641.64259661 282.03409814 641.6407504 285.86662292 641.62041855 C287.27229459 641.61700546 288.67801691 641.62211071 290.08362007 641.63640213 C298.30088516 642.09332614 298.30088516 642.09332614 305.37098694 638.68811035 C307.30413601 636.00701541 307.30413601 636.00701541 307.0625 632.375 C305.86501309 628.57121807 305.42806241 627.8497858 302 626 C299.30800855 625.74355859 296.85694591 625.64953248 294.171875 625.70703125 C293.42286926 625.71127609 292.67386353 625.71552094 291.90216064 625.71989441 C289.51773625 625.73664254 287.13416747 625.77428603 284.75 625.8125 C283.13022057 625.82755191 281.51042785 625.84123943 279.890625 625.85351562 C275.92675534 625.8865332 271.96352257 625.93828754 268 626 C267.92652344 624.81857422 267.92652344 624.81857422 267.8515625 623.61328125 C267.73941406 621.97939453 267.73941406 621.97939453 267.625 620.3125 C267.55539062 619.25675781 267.48578125 618.20101562 267.4140625 617.11328125 C266.92466077 611.37127542 265.91348495 605.68647065 265 600 C266.00509613 600.00666183 267.01019226 600.01332367 268.04574585 600.02018738 C277.54922511 600.08118159 287.05266431 600.12606022 296.55629539 600.15543652 C301.44142229 600.17104722 306.3263903 600.19220098 311.21142578 600.22631836 C315.93173393 600.25907643 320.6518899 600.27688753 325.37230301 600.28463173 C327.16710427 600.29014585 328.96189784 600.30091312 330.75663376 600.31719017 C343.68096767 600.42967143 355.07755415 600.44010473 365 591 C373.65673183 580.06518084 372.15613288 565.90141839 372.17700195 552.70532227 C372.18327597 550.95669421 372.18992358 549.20806747 372.19691467 547.45944214 C372.21783409 541.74510608 372.22830103 536.03077009 372.23828125 530.31640625 C372.2423324 528.3425743 372.24644942 526.36874249 372.25063133 524.39491081 C372.26965102 515.1247272 372.28389255 505.85455142 372.2922433 496.58435208 C372.30202426 485.90542331 372.32837977 475.22670133 372.36874419 464.54784542 C372.39893304 456.27581217 372.41371453 448.00383816 372.41702431 439.73175091 C372.41937021 434.79850136 372.42827199 429.86547357 372.45348549 424.9322834 C372.47682194 420.29217937 372.48097711 415.65244235 372.47072411 411.01229477 C372.47023011 409.31522714 372.47651021 407.61814106 372.49028015 405.92112923 C372.58312051 393.79584753 371.58531162 383.88568509 362.9296875 374.69140625 C355.65532791 368.31529754 347.65805727 367.8509488 338.39938354 367.85282898 C337.42690363 367.84915229 336.45442372 367.8454756 335.45247471 367.8416875 C332.19080461 367.8306663 328.92916639 367.82680946 325.66748047 367.82299805 C323.32993977 367.81673222 320.99240007 367.81008532 318.65486145 367.80308533 C310.97564384 367.78205696 303.29642606 367.77168419 295.6171875 367.76171875 C292.97227086 367.75767076 290.32735432 367.75355383 287.6824379 367.74936867 C276.67965719 367.73236037 265.67687745 367.71786733 254.67408562 367.71061993 C251.82113519 367.70871019 248.96818477 367.70678983 246.11523438 367.70483398 C245.40619037 367.70435024 244.69714636 367.7038665 243.96661617 367.7033681 C232.48653106 367.69507187 221.00655028 367.66974009 209.5265107 367.63725331 C197.72783774 367.60413827 185.92921772 367.58616718 174.13049805 367.58297569 C167.51094995 367.58081476 160.89153665 367.57168093 154.27202988 367.54651451 C148.04216042 367.52321186 141.81256435 367.51900962 135.58266258 367.52927589 C133.30066327 367.52977082 131.01865041 367.52346322 128.73669243 367.50971985 C107.2132634 367.19541946 107.2132634 367.19541946 90 379 Z M782.25 412.5625 C773.41660917 423.36799669 772.04584097 436.59539083 773 450 C774.58396846 459.57369175 778.46282601 469.56325341 786 476 C798.19735482 483.66741235 809.88830211 485.46596504 823.921875 482.3515625 C832.49326096 479.71235044 839.07442581 474.60944506 843.88671875 467.02734375 C845.43422667 464.06347264 846.77199899 461.10864592 848 458 C848.26554688 457.33484375 848.53109375 456.6696875 848.8046875 455.984375 C852.58675654 444.06826707 850.29240466 430.33082087 844.6796875 419.4375 C838.86045417 410.02496958 831.62185272 404.90266846 821 402 C807.09793276 399.1724609 792.34624885 402.07458632 782.25 412.5625 Z M521.1953125 411.6640625 C513.00593942 420.58681228 509.58504022 432.39585702 509.7890625 444.3515625 C510.77388071 456.71650223 514.23468145 466.66241808 523.1875 475.375 C532.16207931 482.79138857 543.27329501 484.70825432 554.6953125 483.78125 C564.89357719 482.11883695 573.71461468 477.25919229 580 469 C587.05477383 456.68556018 589.21429383 443.09793109 585.875 429.1875 C582.65000983 419.09253077 577.01754679 411.32997568 567.98046875 405.75390625 C552.70968154 398.01935169 533.843693 400.00127009 521.1953125 411.6640625 Z M417 403 C417 429.07 417 455.14 417 482 C422.28 482 427.56 482 433 482 C433.33 465.83 433.66 449.66 434 433 C439.66666667 444.33333333 445.33333333 455.66666667 451 467 C455.29 467 459.58 467 464 467 C469.61 455.78 475.22 444.56 481 433 C481.33 449.17 481.66 465.34 482 482 C487.28 482 492.56 482 498 482 C498 455.93 498 429.86 498 403 C492.06 403 486.12 403 480 403 C479.24976563 404.51207031 478.49953125 406.02414062 477.7265625 407.58203125 C471.31283737 420.47686142 464.77422987 433.29082538 458 446 C455.19467541 442.5731848 453.28449012 438.81010928 451.34765625 434.85546875 C451.00625107 434.16745682 450.66484589 433.47944489 450.31309509 432.77058411 C449.22572315 430.57809893 448.14374277 428.38301347 447.0625 426.1875 C445.98416287 424.00303977 444.90461378 421.81920069 443.82261658 419.6365509 C443.15135692 418.28195718 442.48223599 416.92630062 441.81568909 415.56938171 C441.50534225 414.94215714 441.19499542 414.31493256 440.87524414 413.66870117 C440.60893692 413.12783371 440.3426297 412.58696625 440.06825256 412.02970886 C438.46069309 408.97530223 436.71248069 405.99684121 435 403 C429.06 403 423.12 403 417 403 Z M598 403 C598 429.07 598 455.14 598 482 C603.61 482 609.22 482 615 482 C615.33 466.16 615.66 450.32 616 434 C627.46606445 451.19909668 627.46606445 451.19909668 638.93212891 468.39819336 C639.45381653 469.15172089 639.97550415 469.90524841 640.51300049 470.68161011 C642 473 642 473 643.19744873 475.58718872 C644.53648085 478.52863471 644.53648085 478.52863471 648 482 C652.95 482 657.9 482 663 482 C663 455.93 663 429.86 663 403 C657.72 403 652.44 403 647 403 C646.67 418.84 646.34 434.68 646 451 C642.9371875 446.3903125 642.9371875 446.3903125 639.8125 441.6875 C634.91144617 434.32926258 629.98357033 426.99013573 625 419.6875 C624.48542236 418.93106201 623.97084473 418.17462402 623.44067383 417.39526367 C622.45351363 415.95308307 621.45021828 414.52178986 620.4296875 413.10302734 C619 411 619 411 617.8203125 408.68212891 C616.46107777 406.03345743 616.46107777 406.03345743 613 403 C608.05 403 603.1 403 598 403 Z M678 403 C678 429.07 678 455.14 678 482 C683.61 482 689.22 482 695 482 C695.02255146 471.84733453 695.04091534 461.69468557 695.05181217 451.54200077 C695.05704089 446.82820267 695.06413834 442.11442253 695.07543945 437.40063477 C695.08626873 432.85544596 695.09227692 428.31027448 695.09487724 423.76507378 C695.09673142 422.02705042 695.10035189 420.28902806 695.10573006 418.55101204 C695.11294103 416.12521405 695.11399092 413.69948854 695.11352539 411.27368164 C695.11712067 410.54791931 695.12071594 409.82215698 695.12442017 409.07440186 C695.408186 405.75400112 695.408186 405.75400112 694 403 C688.72 403 683.44 403 678 403 Z M706 403 C706 407.62 706 412.24 706 417 C713.26 417.33 720.52 417.66 728 418 C728 439.12 728 460.24 728 482 C733.61 482 739.22 482 745 482 C745 460.55 745 439.1 745 417 C752.59 417 760.18 417 768 417 C768 412.38 768 407.76 768 403 C747.54 403 727.08 403 706 403 Z M862 403 C862 429.07 862 455.14 862 482 C867.61 482 873.22 482 879 482 C879 473.09 879 464.18 879 455 C888 455 888 455 890.27514648 457.15551758 C890.80180908 458.14189209 891.32847168 459.1282666 891.87109375 460.14453125 C892.46470703 461.21380859 893.05832031 462.28308594 893.66992188 463.38476562 C894.25322266 464.51591797 894.83652344 465.64707031 895.4375 466.8125 C896.04787109 467.93205078 896.65824219 469.05160156 897.28710938 470.20507812 C898.41753391 472.2802235 899.53360067 474.3632993 900.63061523 476.45629883 C902.01777299 479.12850773 902.01777299 479.12850773 904 482 C906.02887311 482.41480107 906.02887311 482.41480107 908.3515625 482.29296875 C909.62773438 482.2784668 909.62773438 482.2784668 910.9296875 482.26367188 C911.81914063 482.23853516 912.70859375 482.21339844 913.625 482.1875 C914.5221875 482.17396484 915.419375 482.16042969 916.34375 482.14648438 C918.56309789 482.11106925 920.78125188 482.06168461 923 482 C917.10253819 471.60531173 911.07897757 461.28941695 905 451 C905.92425781 450.73316406 906.84851563 450.46632813 907.80078125 450.19140625 C912.96174525 448.26943553 915.63148553 444.76778207 918.04296875 439.890625 C920.94248408 432.21303512 921.20497843 424.38735788 917.90625 416.8125 C914.96604985 410.93209969 912.04047838 407.50264641 906 405 C891.88308774 400.9665965 876.68181036 403 862 403 Z M502 531 C493.98867993 540.09729901 490.60346048 553.34467405 490.78515625 565.31640625 C491.77867965 577.72641669 495.47366452 590.45770357 505 599 C515.26125291 606.7831328 527.29004099 609.325209 540 608 C551.28973355 605.79456368 561.16199217 600.83029962 567.7578125 591.16015625 C575.59821049 577.52575345 576.72332222 562.89517309 572.83642578 547.85327148 C569.68367944 536.73352185 563.49706809 528.55443625 553.4375 522.75 C535.86321081 514.57918819 515.95773052 517.75332368 502 531 Z M417 520 C417 548.38 417 576.76 417 606 C446.06269164 609.20048671 446.06269164 609.20048671 475.52734375 598.77734375 C480.70785962 592.52499701 481.6622718 586.07306432 481.3828125 578.08984375 C480.64169475 572.10796476 478.44417362 568.02972142 473.9375 564.0625 C471.13617085 561.88631397 471.13617085 561.88631397 468 561 C468.72316406 560.36384766 468.72316406 560.36384766 469.4609375 559.71484375 C474.98654709 554.58392056 476.69837024 550.74020901 477.3125 543.125 C477.06619558 536.42292697 475.4068199 530.90889179 470.5625 526.125 C455.24261296 515.63192668 433.94899817 520 417 520 Z M589 520 C589 548.38 589 576.76 589 606 C606.82 606 624.64 606 643 606 C643 600.72 643 595.44 643 590 C631.12 590 619.24 590 607 590 C607 566.9 607 543.8 607 520 C601.06 520 595.12 520 589 520 Z M655 520 C655 548.38 655 576.76 655 606 C660.94 606 666.88 606 673 606 C673 577.62 673 549.24 673 520 C667.06 520 661.12 520 655 520 Z M686 520 C686.56645494 524.72046559 687.49969766 528.9576935 689.05371094 533.44750977 C689.69007477 535.30092735 689.69007477 535.30092735 690.33929443 537.19178772 C690.80416983 538.52504672 691.26920072 539.85825151 691.734375 541.19140625 C692.21474225 542.58257597 692.69457057 543.97393188 693.17388916 545.36546326 C694.43550352 549.02313197 695.70477496 552.67809872 696.97558594 556.33258057 C697.99924692 559.28020461 699.01770874 562.22961104 700.03582382 565.1791544 C703.00859887 573.79144662 705.98847521 582.40116924 709 591 C709.23024368 591.6593391 709.46048737 592.31867821 709.69770813 592.99799728 C710.38417642 594.96064962 711.07476963 596.92180117 711.76660156 598.88256836 C712.17154846 600.03389755 712.57649536 601.18522675 712.99371338 602.3714447 C713.7525669 604.88842058 713.7525669 604.88842058 715 606 C716.56172745 606.08685603 718.12729344 606.10702219 719.69140625 606.09765625 C721.10776367 606.09282227 721.10776367 606.09282227 722.55273438 606.08789062 C724.04256836 606.07532227 724.04256836 606.07532227 725.5625 606.0625 C726.55958984 606.05798828 727.55667969 606.05347656 728.58398438 606.04882812 C731.05604849 606.03700007 733.52799518 606.02051849 736 606 C742.72019219 586.66218988 749.27701315 567.27587145 755.625 547.8125 C755.93004456 546.88021576 756.23508911 545.94793152 756.54937744 544.98739624 C757.42412626 542.31163318 758.2948152 539.63458595 759.1640625 536.95703125 C759.42191528 536.16873932 759.67976807 535.38044739 759.94543457 534.56826782 C760.18725464 533.81975555 760.42907471 533.07124329 760.67822266 532.30004883 C760.88629547 531.65949051 761.09436829 531.01893219 761.30874634 530.35896301 C762.31198869 526.93531155 763.134726 523.46109599 764 520 C758.06 520 752.12 520 746 520 C744.25849875 524.64400332 742.57616849 529.15567338 741.09887695 533.86523438 C740.75875076 534.94575073 740.41862457 536.02626709 740.06819153 537.13952637 C739.71182114 538.27942017 739.35545074 539.41931396 738.98828125 540.59375 C738.61519333 541.78101685 738.24210541 542.96828369 737.85771179 544.19152832 C736.87470909 547.32108058 735.89360746 550.4512201 734.91345215 553.58166504 C733.90941189 556.78672144 732.90283604 559.99098126 731.89648438 563.1953125 C729.92867203 569.4628164 727.96336717 575.73110227 726 582 C724.30518953 579.45778429 723.47764636 577.7787605 722.56713867 574.95019531 C722.30313766 574.13794495 722.03913666 573.32569458 721.76713562 572.48883057 C721.48691055 571.61079773 721.20668549 570.73276489 720.91796875 569.828125 C720.62191238 568.91351501 720.32585602 567.99890503 720.02082825 567.05657959 C719.07202197 564.1224408 718.12957494 561.18630618 717.1875 558.25 C716.56489381 556.31886828 715.94185146 554.38787713 715.31835938 552.45703125 C715.01350616 551.51291382 714.70865295 550.56879639 714.39456177 549.59606934 C714.09291107 548.66202271 713.79126038 547.72797607 713.48046875 546.765625 C713.18179901 545.84027954 712.88312927 544.91493408 712.57540894 543.96154785 C710.76667436 538.36105254 708.95531353 532.7615197 707.11328125 527.171875 C706.72567627 525.99206055 706.33807129 524.81224609 705.9387207 523.59667969 C705.24527168 521.10374193 705.24527168 521.10374193 704 520 C702.65732587 519.91368126 701.31025678 519.89293527 699.96484375 519.90234375 C699.15595703 519.90556641 698.34707031 519.90878906 697.51367188 519.91210938 C696.66353516 519.92048828 695.81339844 519.92886719 694.9375 519.9375 C694.08349609 519.94201172 693.22949219 519.94652344 692.34960938 519.95117188 C690.23304337 519.96299627 688.11651315 519.98093231 686 520 Z M777 520 C777.33 548.38 777.66 576.76 778 606 C783.94 606 789.88 606 796 606 C796 577.62 796 549.24 796 520 C789.73 520 783.46 520 777 520 Z M835 520 C832.60001022 525.99997444 830.27210152 531.88900531 828.25097656 538.00415039 C828.00655319 538.73552216 827.76212982 539.46689392 827.51029968 540.22042847 C826.71748869 542.59520945 825.92895093 544.97138306 825.140625 547.34765625 C824.58605517 549.01255987 824.03126218 550.67738917 823.47625732 552.34214783 C822.32133963 555.80845561 821.16842413 559.27542031 820.01708984 562.74291992 C818.53836625 567.19620295 817.0556218 571.64813435 815.57153702 576.09963322 C814.4294042 579.52630269 813.28883133 582.95348964 812.14879608 586.38085747 C811.60211011 588.02410325 811.05505764 589.66722715 810.50763702 591.31022835 C809.74739186 593.59311915 808.98912071 595.87665563 808.23144531 598.16040039 C808.00396103 598.84240005 807.77647675 599.52439972 807.542099 600.22706604 C806.45804944 603.05385264 806.45804944 603.05385264 806 606 C812.27 606 818.54 606 825 606 C826.98 600.06 828.96 594.12 831 588 C846.345 587.505 846.345 587.505 862 587 C862.66 590.3 863.32 593.6 864 597 C864.99 599.97 865.98 602.94 867 606 C873.27 606 879.54 606 886 606 C883.73804055 597.28823003 880.98009453 588.81427647 878.03515625 580.3125 C877.5555015 578.91977398 877.076132 577.52694969 876.59703064 576.1340332 C875.59813956 573.23217356 874.59700671 570.33110167 873.59399414 567.43066406 C872.31907211 563.74389505 871.04800975 560.05581116 869.77842045 556.36720276 C868.55280571 552.80685115 867.32532473 549.24714386 866.09765625 545.6875 C865.7550561 544.69346664 865.7550561 544.69346664 865.40553474 543.67935181 C862.67418137 535.75931376 859.88610303 527.8650184 857 520 C849.74 520 842.48 520 835 520 Z " fill="#000000" transform="translate(0,0)"/>
<path d="M0 0 C0.82982875 -0.00644889 1.6596575 -0.01289778 2.51463258 -0.0195421 C3.87424858 -0.01489629 3.87424858 -0.01489629 5.26133156 -0.01015663 C6.71181088 -0.0169533 6.71181088 -0.0169533 8.19159281 -0.02388728 C11.44044269 -0.03657451 14.68912586 -0.03490811 17.93799782 -0.03325844 C20.2638006 -0.03924096 22.58960139 -0.04604587 24.91539955 -0.05361366 C31.2397546 -0.07130842 37.56405557 -0.0759705 43.88843298 -0.07724524 C49.16442585 -0.07914244 54.44040606 -0.08649788 59.71639407 -0.09358943 C71.45065676 -0.10923693 83.18489597 -0.11492616 94.91916816 -0.11357872 C95.62324816 -0.11349881 96.32732816 -0.1134189 97.05274391 -0.11333656 C97.75768374 -0.1132548 98.46262358 -0.11317304 99.18892522 -0.1130888 C110.61425969 -0.11227585 122.03946234 -0.13141582 133.46475868 -0.1596133 C145.19671244 -0.18833909 156.9286019 -0.20215377 168.66059172 -0.20042574 C175.2470207 -0.19991525 181.83330053 -0.20564676 188.41969872 -0.22678185 C194.61343885 -0.24611376 200.80688675 -0.24632309 207.00063705 -0.23174858 C209.27505544 -0.22965316 211.54949189 -0.2344048 213.82387924 -0.2464695 C216.92666683 -0.26186366 220.02843948 -0.25265183 223.13120461 -0.23720741 C224.03315382 -0.24749454 224.93510304 -0.25778167 225.86438406 -0.26838052 C231.30263111 -0.20848097 234.63299001 0.45272404 238.82325172 4.25726891 C241.64620039 8.56630227 242.19609606 11.91695849 242.18401527 17.01505089 C242.18658333 17.66789558 242.18915138 18.32074028 242.19179726 18.99336815 C242.19673776 21.17387521 242.18023506 23.35368116 242.1638279 25.53412437 C242.16290835 27.12681176 242.16331029 28.71950036 242.16492367 30.31218719 C242.16559975 34.56962555 242.14823766 38.82680993 242.12709236 43.08418846 C242.10998213 47.08207546 242.10920163 51.0799013 242.1070652 55.07782555 C242.09133576 66.76267352 242.04945217 78.44747444 242.01075172 90.13226891 C241.94887672 116.24351891 241.88700172 142.35476891 241.82325172 169.25726891 C158.00325172 169.25726891 74.18325172 169.25726891 -12.17674828 169.25726891 C-12.25924828 142.81601891 -12.34174828 116.37476891 -12.42674828 89.13226891 C-12.46316429 80.7815609 -12.49958031 72.43085289 -12.53709984 63.82709312 C-12.55516624 53.63446617 -12.55516624 53.63446617 -12.55852318 48.86374474 C-12.56225175 45.52973357 -12.57724905 42.19597684 -12.59905052 38.86203575 C-12.62649661 34.60852839 -12.63471129 30.35539076 -12.62903738 26.10180306 C-12.63022373 24.5412903 -12.63815043 22.98076455 -12.6536088 21.4203279 C-12.67354169 19.31007891 -12.66869803 17.20126132 -12.65776634 15.09097862 C-12.66145351 13.90924002 -12.66514069 12.72750141 -12.66893959 11.50995255 C-12.06270036 7.50357458 -10.7382683 5.37028936 -8.17674828 2.25726891 C-5.37076534 0.53494581 -3.27185481 0.00644532 0 0 Z M164.06543922 32.28070641 C162.57168617 34.23947022 162.57168617 34.23947022 162.94825172 36.88226891 C163.68000032 39.58714663 163.68000032 39.58714663 166.82325172 41.25726891 C171.06507724 41.14262497 172.89641358 39.3170885 175.96778297 36.60101891 C181.47364123 32.6136184 188.7300428 30.51076395 195.50684547 30.87445641 C203.13236818 32.13466083 209.32003704 35.05461736 215.06934547 40.18305016 C216.78224408 41.47167972 216.78224408 41.47167972 218.92872047 41.06976891 C221.83509517 39.82332368 222.62799036 38.11261549 223.82325172 35.25726891 C221.86585527 29.27700244 215.05423218 25.97179302 209.78418922 23.17523766 C194.85493343 16.49982152 175.00993225 19.68237888 164.06543922 32.28070641 Z M176.32325172 43.19476891 C174.65720548 45.19572908 174.65720548 45.19572908 174.26075172 47.81976891 C174.6014274 50.51401749 174.6014274 50.51401749 177.32325172 52.06976891 C178.14825172 52.46164391 178.97325172 52.85351891 179.82325172 53.25726891 C180.38012672 52.89633141 180.93700172 52.53539391 181.51075172 52.16351891 C185.89935718 49.49477235 189.5586221 47.44981456 194.78028297 47.74164391 C198.13314082 48.58787189 200.84874896 50.47523439 203.77247047 52.27289391 C205.91252801 53.55560573 205.91252801 53.55560573 208.82325172 52.63226891 C211.44635889 50.93961976 211.44635889 50.93961976 212.32325172 48.06976891 C211.64071676 44.23050974 209.7690976 43.00558173 206.84278297 40.58930016 C196.88773565 34.02320511 185.24689225 36.2789475 176.32325172 43.19476891 Z M182.01075172 62.06976891 C179.72575772 66.27896839 179.52963804 70.10378657 180.69825172 74.69476891 C180.83925109 78.71325072 180.61024896 78.99420326 178.07325172 81.81976891 C177.4209861 82.49137047 176.76872047 83.16297203 176.09668922 83.85492516 C173.42844694 86.67445953 171.06635741 89.68769191 168.69825172 92.75726891 C163.99811085 98.80125055 159.19437079 104.75368126 154.32666969 110.66351891 C153.81249489 111.29129234 153.29832008 111.91906578 152.76856422 112.56586266 C152.26357399 113.17413902 151.75858376 113.78241539 151.23829079 114.40912437 C149.78341254 116.22455824 149.78341254 116.22455824 148.68165016 118.24994469 C147.01451454 121.1138299 145.85096044 122.912017 142.62311745 123.99638939 C136.0409522 124.89226374 136.0409522 124.89226374 132.83048439 123.21809959 C130.91323315 121.60349305 129.24867204 119.89577032 127.56543922 118.03851891 C126.93268074 117.38782433 126.29992226 116.73712975 125.64798927 116.06671715 C123.63720721 113.98805547 121.66779396 111.87497323 119.69825172 109.75726891 C117.71348927 107.67721077 115.72091657 105.60488204 113.72709084 103.53351402 C112.49322843 102.24585813 111.26603289 100.95176489 110.04709816 99.6499691 C106.38777853 95.76132129 102.59725748 92.3142977 98.38846779 89.02081871 C95.87952354 86.19395778 96.21942251 83.32557913 96.14747047 79.69476891 C95.59144154 75.51450319 92.99621437 72.87291961 89.82325172 70.25726891 C85.94844604 67.95249427 82.25223238 67.55750703 77.82325172 68.25726891 C72.7211525 70.95271755 69.64944136 73.77870001 67.82325172 79.25726891 C67.92615614 80.6755976 68.05195775 82.09235854 68.19434547 83.50726891 C68.22102184 86.31339558 68.12680943 87.79892624 66.56592751 90.15570641 C64.75622506 91.9855914 62.87690843 93.62683242 60.88575172 95.25726891 C59.50043349 96.46291852 58.11631509 97.66994818 56.73340797 98.87836266 C55.72238014 99.74243736 55.72238014 99.74243736 54.69092751 100.62396812 C52.27395462 102.73763461 50.04597371 105.00427243 47.82325172 107.31976891 C39.07827085 116.08109554 39.07827085 116.08109554 34.82325172 116.41351891 C33.80231422 116.36711266 33.80231422 116.36711266 32.76075172 116.31976891 C27.29910134 116.23307604 24.82526613 118.32428948 21.01075172 122.00726891 C18.84362153 126.11341032 18.14932552 130.02015294 19.48340797 134.44867516 C20.93744066 137.64519235 22.41065128 139.88003422 25.01075172 142.25726891 C29.03557553 143.68831737 32.60315211 143.92712599 36.82325172 143.25726891 C41.20624256 141.06577349 44.02399897 138.85535928 45.82325172 134.25726891 C46.05480701 130.90743576 45.99895595 127.60866437 45.82325172 124.25726891 C46.48325172 124.25726891 47.14325172 124.25726891 47.82325172 124.25726891 C49.53675829 122.63879716 51.19623677 120.9626656 52.82325172 119.25726891 C58.09412326 113.909011 63.34508901 108.63134194 69.09668922 103.79633141 C71.05198458 102.13060381 71.05198458 102.13060381 73.26075172 99.31976891 C76.54834391 96.67365812 78.54867161 96.86717961 82.63965797 97.17914391 C84.81951479 97.42311565 84.81951479 97.42311565 86.59742165 96.42816734 C88.82325172 96.25726891 88.82325172 96.25726891 91.53711891 98.41937828 C92.57755599 99.46740237 93.60437534 100.52905205 94.62012672 101.60101891 C95.17259071 102.16292931 95.7250547 102.72483971 96.29426003 103.30377769 C98.06604857 105.1102166 99.82002009 106.93283028 101.57325172 108.75726891 C103.87588143 111.12641902 106.18512243 113.4890615 108.49512672 115.85101891 C109.04898048 116.41973717 109.60283424 116.98845543 110.17347145 117.57440758 C113.72086453 121.19812586 117.35716081 124.64734063 121.24610329 127.90765953 C125.35949642 131.42760338 126.13807115 133.02121655 126.57325172 138.56976891 C127.17573714 142.96350399 127.59565215 145.91381896 130.88575172 149.00726891 C134.9082791 151.78113674 138.97939188 152.6373528 143.82325172 152.25726891 C148.5654298 150.64671786 151.03857712 148.38271276 153.82325172 144.25726891 C155.31410005 139.78472394 155.31410005 135.72981387 153.82325172 131.25726891 C155.56153297 128.79633141 155.56153297 128.79633141 158.13575172 125.88226891 C159.07544248 124.79822657 160.01287853 123.71222637 160.94825172 122.62445641 C161.4303611 122.06597008 161.91247047 121.50748375 162.40918922 120.93207359 C164.57936113 118.36173878 166.60382374 115.68754234 168.63575172 113.00726891 C174.07171077 105.85359504 179.73365095 98.88487823 185.4528904 91.95624352 C186.65967109 90.46007625 187.8000079 88.91083135 188.92872047 87.35492516 C191.09755032 84.95356097 192.10703933 84.58283404 195.26075172 84.19476891 C199.45396565 83.43737394 201.8561939 82.48612594 204.82325172 79.25726891 C207.423743 74.74975069 208.36792017 71.24372813 207.46387672 66.18305016 C206.04522868 61.91845574 203.34034324 59.13558505 199.44825172 56.88226891 C191.87859126 55.0799688 187.47545072 56.60506991 182.01075172 62.06976891 Z " fill="#000000" transform="translate(114.17674827575684,384.74273109436035)"/>
<path d="M0 0 C6.30747971 3.51740362 9.91170422 9.13384657 11.94140625 15.96484375 C13.99819969 26.07081921 12.59746536 35.32517217 7.94140625 44.46484375 C4.14111031 48.8814039 0.5960584 51.69371136 -5.27734375 52.6015625 C-11.70873492 52.83705536 -17.22032292 52.22754758 -22.37109375 48.15234375 C-28.3727241 41.81302576 -29.74375356 34.82149177 -29.68359375 26.33984375 C-29.6794043 25.54102783 -29.67521484 24.74221191 -29.67089844 23.91918945 C-29.5346351 16.81827478 -28.35029039 11.45100481 -24.68359375 5.33984375 C-17.89065197 -1.08591199 -8.9962977 -3.21613938 0 0 Z " fill="#000000" transform="translate(557.37109375,416.84765625)"/>
<path d="M0 0 C5.81601555 3.11617319 9.02878097 7.76398029 11.13671875 13.9140625 C13.82450683 24.47322997 13.10819991 34.96908577 7.87109375 44.58984375 C5.07366226 48.75705204 1.362744 50.69084923 -3.26171875 52.27734375 C-9.86180573 53.02691115 -15.52987634 52.71644919 -21.26171875 49.27734375 C-28.040097 42.4989655 -30.173422 34.91506716 -30.51171875 25.58984375 C-30.36252261 16.57025896 -28.29106784 9.55158327 -22.17578125 2.8359375 C-16.23754587 -1.99948274 -7.11833726 -2.27442555 0 0 Z " fill="#000000" transform="translate(820.26171875,416.72265625)"/>
<path d="M0 0 C4.021875 -0.0928125 4.021875 -0.0928125 8.125 -0.1875 C8.95789551 -0.21481201 9.79079102 -0.24212402 10.64892578 -0.27026367 C15.49718734 -0.32405612 18.83271864 0.2535269 23 3 C25.24553216 6.76669911 26 9.23901235 26 13.625 C24.79373166 17.69615565 23.3095331 19.38315987 20 22 C16.21616718 23.41345031 12.22972504 23.11102276 8.25 23.0625 C5.8575 23.041875 3.465 23.02125 1 23 C0.67 15.41 0.34 7.82 0 0 Z " fill="#000000" transform="translate(878,417)"/>
<path d="M0 0 C6.18761944 4.18434801 8.91771267 10.28447425 10.5703125 17.38671875 C12.20902606 27.84717361 11.33286814 37.35919249 6.2265625 46.69140625 C3.04942111 50.59475139 -0.08856955 53.7547836 -4.9609375 55.37890625 C-12.20923939 56.02360909 -19.25588293 56.64482765 -25.28125 52.0546875 C-32.78825351 44.56514214 -34.94294148 36.77932187 -35.2734375 26.44140625 C-35.07105679 17.06046491 -32.47284602 8.36001342 -25.9609375 1.37890625 C-18.11049997 -4.20061927 -8.45554431 -4.28752865 0 0 Z " fill="#000000" transform="translate(544.9609375,536.62109375)"/>
<path d="M0 0 C3.06398451 -0.13530844 6.12197126 -0.2342407 9.1875 -0.3125 C10.05181641 -0.35439453 10.91613281 -0.39628906 11.80664062 -0.43945312 C16.31196425 -0.52576201 18.34841408 -0.48103103 22.07421875 2.26953125 C24.6860344 5.9726938 24.6860344 5.9726938 24.625 9 C24.63789063 9.639375 24.65078125 10.27875 24.6640625 10.9375 C23.54275171 14.4201594 21.9327917 15.83487678 19 18 C15.70351954 18.59715655 12.52358992 18.47420458 9.1875 18.3125 C8.30384766 18.28994141 7.42019531 18.26738281 6.50976562 18.24414062 C4.3391109 18.18547428 2.1693331 18.09579979 0 18 C0 12.06 0 6.12 0 0 Z " fill="#000000" transform="translate(435,536)"/>
<path d="M0 0 C2.49980399 2.49980399 3.04220059 4.60915929 4.1640625 7.9609375 C4.56367187 9.15460937 4.96328125 10.34828125 5.375 11.578125 C5.7875 12.83109375 6.2 14.0840625 6.625 15.375 C7.04523437 16.62023437 7.46546875 17.86546875 7.8984375 19.1484375 C8.29546875 20.3446875 8.6925 21.5409375 9.1015625 22.7734375 C9.46588379 23.87091309 9.83020508 24.96838867 10.20556641 26.09912109 C11 29 11 29 11 33 C4.4 33 -2.2 33 -9 33 C-7.62044648 25.43335797 -5.67113194 18.21142157 -3.375 10.875 C-3.05015625 9.823125 -2.7253125 8.77125 -2.390625 7.6875 C-1.59814686 5.12360014 -0.80120992 2.56118184 0 0 Z " fill="#000000" transform="translate(845,539)"/>
<path d="M0 0 C5.0428125 -0.0928125 5.0428125 -0.0928125 10.1875 -0.1875 C11.76374146 -0.22846802 11.76374146 -0.22846802 13.37182617 -0.27026367 C22.10553644 -0.34814602 22.10553644 -0.34814602 26 3 C28.69080456 7.03620685 28.66642423 10.26005764 28 15 C26.17062529 18.30694658 24.88860711 19.61123439 21.4375 21.12109375 C17.08316122 22.23441901 13.09300548 22.21691419 8.625 22.125 C5.77875 22.08375 2.9325 22.0425 0 22 C0 14.74 0 7.48 0 0 Z " fill="#000000" transform="translate(435,569)"/>
<path d="M0 0 C14.52 0 29.04 0 44 0 C44.99 8.58 45.98 17.16 47 26 C30.83 26 14.66 26 -2 26 C-2 17 -2 17 0 0 Z " fill="#000000" transform="translate(207,600)"/>
</svg>
